<svg xmlns="http://www.w3.org/2000/svg" xmlns:xlink="http://www.w3.org/1999/xlink" viewBox="0 0 251.77 255.16"><defs><style>.cls-1{fill:none;}.cls-2,.cls-32{fill:#5a9a60;}.cls-3{fill:#f1f2f7;}.cls-4{fill:#a5aab4;}.cls-5{fill:#b9beca;}.cls-6{fill:#eb4656;}.cls-7{fill:#e2e5f1;}.cls-8{fill:#ced0db;}.cls-9{fill:#41434f;}.cls-10{fill:#fffefe;}.cls-11,.cls-33{fill:#8eb891;}.cls-12{fill:#e9a541;}.cls-13{fill:#c08935;}.cls-14{fill:#e9b669;}.cls-15{fill:#3a617b;}.cls-16{fill:#2d4f64;}.cls-17{fill:#506a7b;}.cls-18,.cls-31{fill:#6eb873;}.cls-19{fill:#5064ae;}.cls-20{fill:#435392;}.cls-21{fill:#6f7caf;}.cls-22{fill:#b22c40;}.cls-23{fill:#dfe0e5;}.cls-24{fill:#ec5d7c;}.cls-25{fill:#c0cde9;}.cls-26{fill:#49758f;}.cls-27{fill:#095a7a;}.cls-28{clip-path:url(#clip-path);}.cls-29{fill:#68a86b;}.cls-29,.cls-30,.cls-31,.cls-32,.cls-33{fill-rule:evenodd;}.cls-30{fill:#8b97c5;}.cls-34{fill:#f1b345;}.cls-35{fill:#1d9ea8;}.cls-36{fill:#afdfe4;}.cls-37{fill:#68c9cd;}.cls-38{fill:#308c88;}.cls-39{fill:#185972;}.cls-40{fill:#1a5d77;}.cls-41{fill:#1e92c0;}.cls-42{fill:#0a6fa2;}.cls-43{fill:#679bb2;}.cls-44{fill:#97bed3;}.cls-45{fill:#1289a5;}.cls-46{fill:#b3dbec;}</style><clipPath id="clip-path"><path class="cls-1" d="M223.62,184.06a26.37,26.37,0,0,0-25.37,0,11.18,11.18,0,0,0-5,5,11.2,11.2,0,0,0,5,5c7.08,4.09,18.07,4.21,25.37,0a11.35,11.35,0,0,0,5-5A11.37,11.37,0,0,0,223.62,184.06Z"/></clipPath></defs><g id="Layer_2" data-name="Layer 2"><g id="Layer_2-2" data-name="Layer 2"><polygon class="cls-2" points="123.8 221.4 123.8 227.26 104 238.7 104 232.84 123.8 221.4"/><path class="cls-2" d="M109.07,235.77l14.73-8.51c-11.72-6.69-27.92-6.71-39.59.08a20.56,20.56,0,0,0-6.46,5.5h-2.1v5.86h0c0,4.17,2.88,8.31,8.55,11.58,11.08,6.4,28.3,6.6,39.73,0l.06,0v-5.86Z"/><polygon class="cls-3" points="251 188.61 197.53 157.74 118.91 203.13 172.39 234 251 188.61"/><polygon class="cls-4" points="118.91 203.13 118.91 206.38 172.39 237.25 172.39 234 118.91 203.13"/><polygon class="cls-5" points="102.46 175.79 28.93 218.33 50.08 230.57 123.61 188.03 102.46 175.79"/><polygon class="cls-6" points="227.76 178.9 225.79 177.76 201.7 191.66 203.68 192.8 227.76 178.9"/><polygon class="cls-6" points="222.39 175.48 220.42 174.34 196.33 188.25 198.31 189.39 222.39 175.48"/><polygon class="cls-6" points="217.02 172.07 215.05 170.93 190.96 184.84 192.94 185.97 217.02 172.07"/><polygon class="cls-6" points="211.65 168.65 209.68 167.51 185.59 181.42 187.56 182.56 211.65 168.65"/><polygon class="cls-7" points="50.08 230.57 50.08 234.6 123.61 192.06 123.61 188.03 50.08 230.57"/><polygon class="cls-4" points="28.93 218.33 28.93 222.36 50.08 234.6 50.08 230.57 28.93 218.33"/><polygon class="cls-8" points="64.82 212.82 64.82 183.63 90.1 169.04 90.1 198.23 64.82 212.82"/><polygon class="cls-4" points="64.82 212.82 64.82 183.63 55.63 178.33 55.63 207.52 64.82 212.82"/><path class="cls-5" d="M146.93,26.23l-7.09-4.09h0a5.4,5.4,0,0,0-6-.4L7.05,94.93a14.1,14.1,0,0,0-7,12.21V211.27a4.85,4.85,0,0,0,2.34,4.18h0l.22.13,7.73,4.49,7.41-10.51,115.9-66.92A16.71,16.71,0,0,0,142,128.17V33.28Z"/><path class="cls-7" d="M15,99.57,141.79,26.38a5.43,5.43,0,0,1,8.14,4.7V132.81a16.7,16.7,0,0,1-8.35,14.47L15.34,220.16A4.91,4.91,0,0,1,8,215.91V111.78A14.1,14.1,0,0,1,15,99.57Z"/><path class="cls-9" d="M15,99.57,141.79,26.38a5.43,5.43,0,0,1,8.14,4.7v93.67l-142,82V111.78A14.1,14.1,0,0,1,15,99.57Z"/><path class="cls-10" d="M14,111.78a8.15,8.15,0,0,1,4.06-7l125.9-72.69v89.22l-130,75Z"/><path class="cls-8" d="M76.27,176c0,2.06,1.3,3,3.19,1.85a6.65,6.65,0,0,0,3.19-5.53c0-2.05-1.34-2.92-3.18-1.86A6.9,6.9,0,0,0,76.27,176Z"/><path class="cls-11" d="M104,232.84l19.8-11.44c-11.72-6.7-27.92-6.71-39.59.08s-11.09,16.54,0,22.94,28.3,6.6,39.73,0l.06,0Z"/><polygon class="cls-7" points="251 188.61 251 191.86 172.39 237.25 172.39 234 251 188.61"/><polygon class="cls-12" points="222.6 137.49 222.6 92.88 231.03 88.01 231.03 132.63 222.6 137.49"/><polygon class="cls-13" points="222.6 137.49 222.6 92.88 216.49 89.34 216.49 133.96 222.6 137.49"/><polygon class="cls-14" points="216.49 89.34 222.6 92.88 231.03 88.01 224.91 84.48 216.49 89.34"/><polygon class="cls-15" points="204.76 147.81 204.76 116.18 213.19 111.31 213.19 142.95 204.76 147.81"/><polygon class="cls-16" points="204.76 147.81 204.76 116.18 198.64 112.64 198.64 144.28 204.76 147.81"/><polygon class="cls-17" points="198.64 112.64 204.76 116.17 213.19 111.31 207.07 107.78 198.64 112.64"/><polygon class="cls-18" points="186.92 158.13 186.92 133.89 195.34 129.02 195.34 153.27 186.92 158.13"/><polygon class="cls-2" points="186.92 158.13 186.92 133.89 180.8 130.35 180.8 154.6 186.92 158.13"/><polygon class="cls-11" points="180.8 130.35 186.92 133.88 195.34 129.02 189.22 125.49 180.8 130.35"/><polygon class="cls-19" points="169.08 168.39 169.08 150.58 177.5 145.72 177.5 163.53 169.08 168.39"/><polygon class="cls-20" points="169.08 168.39 169.08 150.58 162.96 147.04 162.96 164.85 169.08 168.39"/><polygon class="cls-21" points="162.96 147.04 169.08 150.58 177.5 145.72 171.38 142.18 162.96 147.04"/><path class="cls-6" d="M217.48,59.41c-10,18.66-30.41,46.87-54,67.09l-9.16,7.33,3.06,5.26c.9-.63,1.81-1.27,2.71-1.93l.36.21,2.49.43,34.38-31.91L222.6,69.8l.4-5.73Z"/><polygon class="cls-22" points="160.47 144.35 154.34 140.81 154.34 133.83 160.47 137.37 160.47 144.35"/><polygon class="cls-23" points="47.48 96.91 17.88 113.99 17.88 118.55 47.48 101.47 47.48 96.91"/><polygon class="cls-23" points="59.22 97.27 17.88 121.14 17.88 125.7 59.22 101.83 59.22 97.27"/><path class="cls-24" d="M232,52.53l-11.87,10L223,64.07c-11.52,21.08-35.66,53.47-62.53,73.3v7C187.06,125.88,214.35,92,228,66.7l3.57,1.86Z"/><polygon class="cls-6" points="220.12 62.56 213.99 59.07 225.86 49 231.99 52.53 220.12 62.56"/><path class="cls-24" d="M145.19,232.84h-2.14a21.26,21.26,0,0,0-6.55-5.5l-.14-.08L116.55,238.7l20,11.55c5.74-3.33,8.65-7.4,8.63-11.49h0Z"/><path class="cls-6" d="M136.55,244.39c11.38-6.6,11.67-16.15-.05-22.91l-.14-.08-19.81,11.44Z"/><polygon class="cls-22" points="136.55 244.39 136.55 250.25 116.55 238.7 116.55 232.84 136.55 244.39"/><path class="cls-16" d="M198.25,194.11c-7.07-4.09-7.48-10.29,0-14.64a26.34,26.34,0,0,1,25.37,0c7.49,4.32,7.3,10.43,0,14.64S205.33,198.2,198.25,194.11Z"/><path class="cls-15" d="M229.15,191.31h0v-4.47a5.83,5.83,0,0,1-.5,2.25,11.42,11.42,0,0,0-5-5,26.37,26.37,0,0,0-25.37,0,11.18,11.18,0,0,0-5,5,5.88,5.88,0,0,1-.48-2.37h0v4.59h0c0,2.67,1.83,5.31,5.44,7.4,7.08,4.08,18.07,4.21,25.37,0C227.32,196.57,229.18,193.94,229.15,191.31Z"/><path class="cls-15" d="M229.16,186.72h0a.31.31,0,0,1,0,.1Z"/><path class="cls-25" d="M223.62,184.06a26.37,26.37,0,0,0-25.37,0,11.18,11.18,0,0,0-5,5,11.2,11.2,0,0,0,5,5c7.08,4.09,18.07,4.21,25.37,0a11.35,11.35,0,0,0,5-5A11.37,11.37,0,0,0,223.62,184.06Z"/><path class="cls-26" d="M231.47,197.61l-6-3.39a.92.92,0,0,0-1,.09,2.92,2.92,0,0,0-1.35,2.33c0,.51.19.84.5.94l5.9,3.38a1,1,0,0,0,.93-.13,2.81,2.81,0,0,0,1.34-2.33A1,1,0,0,0,231.47,197.61Z"/><path class="cls-16" d="M232.41,196.06l0,0h0a1.83,1.83,0,0,0-1.84.2,5.65,5.65,0,0,0-2.63,4.54,1.86,1.86,0,0,0,.8,1.76h0l18.48,10.87L251,207Z"/><path class="cls-27" d="M246.54,211.76c0,1.69,1.07,2.42,2.62,1.52a5.47,5.47,0,0,0,2.61-4.54c0-1.68-1.1-2.39-2.6-1.52A5.64,5.64,0,0,0,246.54,211.76Z"/><g class="cls-28"><polygon class="cls-6" points="242.94 175.05 240.18 173.45 206.43 192.94 209.19 194.53 242.94 175.05"/><polygon class="cls-6" points="232.99 172.35 230.22 170.75 196.47 190.24 199.24 191.83 232.99 172.35"/></g><polygon class="cls-29" points="208.69 36.82 204.18 34.2 203.6 31.4 206.58 26.71 208.69 36.82"/><polygon class="cls-30" points="209.54 3.93 205.03 1.3 201.96 0 206.47 2.62 209.54 3.93"/><path class="cls-31" d="M195.83,37.5l13.49-21.26,6.21,29.63L198.9,38.8l-9.05,14.26-9.06-3.85L164.17,75.4l6.2-36.76,19.48,8.28,6-9.42ZM202,34l6.72,2.85-2.11-10.11L202,34ZM177.72,47.91l-4.6-2L171,58.5Z"/><polygon class="cls-31" points="173.22 21.75 170.15 26.59 189.85 34.95 209.54 3.93 206.47 2.62 189.85 28.81 173.22 21.75"/><polygon class="cls-31" points="173.22 79.25 170.15 77.94 189.85 46.92 209.54 55.29 206.47 60.12 189.85 53.06 173.22 79.25"/><polygon class="cls-32" points="165.86 36.02 185.34 44.29 189.85 46.92 170.37 38.64 165.86 36.02"/><polygon class="cls-32" points="205.03 52.66 209.54 55.29 192.92 48.22 193.27 47.66 205.03 52.66"/><polyline class="cls-33" points="164.17 75.38 159.66 72.78 165.86 36.02 170.37 38.64 164.17 75.38"/><polygon class="cls-33" points="170.15 77.94 165.64 75.32 181.91 49.69 186.78 51.75 170.15 77.94"/><polygon class="cls-29" points="177.72 47.91 173.85 46.26 172.82 47.71 171 58.5 177.72 47.91"/><polygon class="cls-33" points="204.81 13.62 209.32 16.24 189.85 46.92 185.34 44.29 204.81 13.62"/><polygon class="cls-33" points="206.47 2.62 201.96 0 185.34 26.19 189.85 28.81 206.47 2.62"/><polygon class="cls-33" points="173.22 21.75 168.71 19.13 165.64 23.96 170.15 26.59 173.22 21.75"/><polygon class="cls-32" points="189.85 28.81 185.34 26.19 168.71 19.13 173.22 21.75 189.85 28.81"/><polygon class="cls-32" points="208.69 36.82 204.18 34.2 202.32 33.41 201.97 33.97 208.69 36.82"/><polygon class="cls-5" points="191.86 213.81 189.89 212.67 165.81 226.57 167.78 227.71 191.86 213.81"/><polygon class="cls-5" points="177.05 179.21 173.31 177.05 127.64 203.42 131.38 205.58 177.05 179.21"/><path class="cls-18" d="M153.45,197.44l-.26.14c-6.46,3.75-6.11,9.11,0,12.64l.15.07,11.18-6.45Z"/><polygon class="cls-5" points="182.08 212.12 161.55 223.98 163.52 225.12 184.06 213.26 182.08 212.12"/><path class="cls-34" d="M176.53,197.61a22.79,22.79,0,0,0-21.63-.14l11.08,6.4-11.19,6.46c6.11,3.44,15.49,3.52,21.74-.08S183,201.34,176.53,197.61Z"/><polygon class="cls-5" points="188.59 218.47 170.06 229.17 172.03 230.31 190.56 219.61 188.59 218.47"/><polygon class="cls-35" points="21.82 136.94 26.33 130.06 30.83 128.7 35.34 127.01 39.85 124.41 44.36 116.41 48.87 119.91 53.38 118.77 57.88 113.92 62.39 106.03 66.9 101.71 71.41 97.39 75.92 97.05 80.42 92.2 84.93 92.78 89.44 82.1 93.95 74.2 98.46 78.24 102.97 77.5 107.47 76.63 111.98 77.35 116.49 70.77 121 63.14 125.51 63.33 125.51 118.09 21.82 177.78 21.82 136.94"/><polygon class="cls-36" points="111.98 77.35 115.19 79.2 122.34 72.19 124.21 64.99 121 63.14 116.49 70.77 111.98 77.35"/><polygon class="cls-36" points="43.06 126.27 39.85 124.41 44.36 116.41 47.57 118.26 43.06 126.27"/><polygon class="cls-36" points="71.41 97.39 74.62 99.24 65.6 107.88 62.39 106.03 71.41 97.39"/><polygon class="cls-36" points="75.92 97.05 79.13 98.9 83.63 94.05 80.42 92.2 75.92 97.05"/><polygon class="cls-36" points="84.93 92.78 88.14 94.64 92.65 83.95 97.16 76.05 93.95 74.2 89.44 82.1 84.93 92.78"/><polygon class="cls-37" points="25.03 138.79 29.54 131.91 34.04 130.55 38.55 128.86 43.06 126.27 47.57 118.26 52.08 121.76 56.59 120.63 61.09 115.78 65.6 107.88 70.11 103.56 74.62 99.24 79.13 98.9 83.63 94.05 88.14 94.64 92.65 83.95 97.16 76.05 101.67 80.09 106.18 79.35 110.68 78.48 115.19 79.2 119.7 72.63 124.21 64.99 128.72 65.18 128.72 119.94 25.03 179.63 25.03 138.79"/><polygon class="cls-27" points="25.03 168.09 29.54 162.19 34.04 162.38 38.55 162.17 43.06 156.12 47.57 151.81 52.08 152.53 56.59 149.2 61.09 145.21 65.6 143.28 70.11 140.69 74.62 134.11 79.13 135.16 83.63 130.38 88.14 120.09 92.65 110.47 97.16 103.63 101.67 105.15 106.18 104.41 110.68 100.89 115.19 96.3 119.7 91.19 124.21 86.34 128.72 83.75 128.72 119.94 25.03 179.63 25.03 168.09"/><polygon class="cls-38" points="21.82 177.78 21.82 136.94 25.03 138.79 25.03 179.63 21.82 177.78"/><polygon class="cls-39" points="28.23 169.95 25.03 168.09 25.03 179.63 28.23 181.48 28.23 169.95"/><polygon class="cls-40" points="131.93 85.6 128.72 83.75 124.21 86.34 127.42 88.19 131.93 85.6"/><polygon class="cls-41" points="32.74 164.04 29.54 162.19 25.03 168.09 28.23 169.95 32.74 164.04"/><path class="cls-41" d="M38.55,162.17,41.76,164s9.11-5.61,9.11-5.74-.09-4.62-.09-4.62l-3.21-1.86-4.51,4.32Z"/><polygon class="cls-41" points="52.08 152.53 55.28 154.38 61.52 151.39 64.3 147.06 61.09 145.21 56.59 149.2 52.08 152.53"/><polygon class="cls-41" points="70.11 140.69 73.32 142.54 77.83 135.97 74.62 134.11 70.11 140.69"/><polygon class="cls-41" points="97.16 103.63 100.37 105.49 95.86 112.33 86.84 133.15 83.63 130.38 88.14 120.09 92.65 110.47 97.16 103.63"/><polygon class="cls-41" points="106.18 104.41 109.39 106.26 119.98 101.5 127.42 88.19 124.21 86.34 119.7 91.19 115.19 96.3 110.68 100.89 106.18 104.41"/><polygon class="cls-42" points="28.23 169.95 32.74 164.04 37.25 164.23 41.76 164.02 46.27 157.98 50.78 153.66 55.28 154.38 59.79 151.05 64.3 147.06 68.81 145.13 73.32 142.54 77.83 135.97 82.33 137.02 86.84 132.23 91.35 121.95 95.86 112.33 100.37 105.49 104.88 107 109.39 106.26 113.89 102.74 118.4 98.16 122.91 93.04 127.42 88.19 131.93 85.6 131.93 121.8 28.23 181.48 28.23 169.95"/><polygon class="cls-43" points="32.74 176.24 37.25 174.84 41.76 170.52 46.27 167.92 50.78 163.87 55.28 163.66 59.79 160.27 64.3 158.47 68.81 152.82 73.32 151.42 77.83 146.84 82.33 145.04 86.84 143.24 91.35 139.05 95.86 127.44 100.37 126.97 104.88 126.76 109.39 119.13 113.89 118.39 118.4 115 122.91 108.89 127.42 103.84 131.93 102.04 131.93 121.8 37.62 179.06 28.23 181.48 32.74 176.24"/><polygon class="cls-44" points="35.95 178.09 40.46 176.69 44.97 172.37 49.48 169.77 53.99 165.72 58.49 165.51 63 162.12 67.51 160.32 72.02 154.68 76.53 153.28 81.03 148.69 85.54 146.89 90.05 145.09 94.56 140.91 99.07 129.29 103.58 128.82 108.08 128.61 112.59 120.98 117.1 120.24 121.61 116.85 126.12 110.74 130.63 105.69 135.13 103.89 135.13 123.65 31.44 183.34 35.95 178.09"/><polygon class="cls-45" points="79.13 135.16 82.33 137.02 86.84 132.23 83.63 130.38 79.13 135.16"/><polygon class="cls-36" points="26.33 130.06 29.54 131.91 25.03 138.79 21.82 136.94 26.33 130.06"/><polygon class="cls-35" points="128.72 65.18 125.51 63.33 121 63.14 124.21 64.99 128.72 65.18"/><polygon class="cls-46" points="31.44 183.34 28.23 181.48 32.74 176.24 35.95 178.09 31.44 183.34"/><polygon class="cls-46" points="40.46 176.69 37.25 174.84 41.76 170.52 44.97 172.37 40.46 176.69"/><polygon class="cls-46" points="49.48 169.77 46.27 167.92 50.78 163.87 53.99 165.72 49.48 169.77"/><polygon class="cls-46" points="58.49 165.51 55.28 163.66 59.79 160.27 63 162.12 58.49 165.51"/><polygon class="cls-46" points="67.51 160.32 64.3 158.47 68.81 152.82 72.02 154.68 67.51 160.32"/><polygon class="cls-46" points="73.32 151.42 76.53 153.28 81.03 148.69 77.83 146.84 73.32 151.42"/><polygon class="cls-46" points="86.84 143.24 90.05 145.09 94.56 140.91 91.35 139.05 86.84 143.24"/><polygon class="cls-46" points="95.86 127.44 91.35 139.05 94.56 140.91 99.07 129.29 95.86 127.44"/><polygon class="cls-46" points="104.88 126.76 108.08 128.61 112.59 120.98 109.39 119.13 104.88 126.76"/><polygon class="cls-46" points="113.89 118.39 117.1 120.24 121.61 116.85 118.4 115 113.89 118.39"/><polygon class="cls-46" points="122.91 108.89 127.42 103.84 130.63 105.69 126.12 110.74 122.91 108.89"/><polygon class="cls-46" points="135.13 103.89 131.93 102.04 127.42 103.84 130.63 105.69 135.13 103.89"/></g></g></svg>