<svg xmlns="http://www.w3.org/2000/svg" xmlns:xlink="http://www.w3.org/1999/xlink" viewBox="0 0 251.77 234.15"><defs><style>.cls-1{fill:none;}.cls-16,.cls-2{fill:#3a617b;}.cls-2{fill-rule:evenodd;}.cls-3{fill:#5a9a60;}.cls-4{fill:#f1f2f7;}.cls-5{fill:#a5aab4;}.cls-6{fill:#b9beca;}.cls-7{fill:#eb4656;}.cls-8{fill:#e2e5f1;}.cls-9{fill:#ced0db;}.cls-10{fill:#41434f;}.cls-11{fill:#fffefe;}.cls-12{fill:#8eb891;}.cls-13{fill:#e9a541;}.cls-14{fill:#c08935;}.cls-15{fill:#e9b669;}.cls-17{fill:#2d4f64;}.cls-18{fill:#506a7b;}.cls-19{fill:#6eb873;}.cls-20{fill:#5064ae;}.cls-21{fill:#435392;}.cls-22{fill:#6f7caf;}.cls-23{fill:#b22c40;}.cls-24{fill:#dfe0e5;}.cls-25{fill:#ec5d7c;}.cls-26{fill:#c0cde9;}.cls-27{fill:#49758f;}.cls-28{fill:#095a7a;}.cls-29{clip-path:url(#clip-path);}.cls-30{fill:#f1b345;}.cls-31{fill:#1d9ea8;}.cls-32{fill:#afdfe4;}.cls-33{fill:#68c9cd;}.cls-34{fill:#308c88;}.cls-35{fill:#185972;}.cls-36{fill:#1a5d77;}.cls-37{fill:#1e92c0;}.cls-38{fill:#0a6fa2;}.cls-39{fill:#679bb2;}.cls-40{fill:#97bed3;}.cls-41{fill:#1289a5;}.cls-42{fill:#b3dbec;}</style><clipPath id="clip-path"><path class="cls-1" d="M223.62,163.05a26.37,26.37,0,0,0-25.37,0,11.18,11.18,0,0,0-5,5,11.2,11.2,0,0,0,5,5c7.08,4.09,18.07,4.22,25.37,0a11.35,11.35,0,0,0,5-5A11.37,11.37,0,0,0,223.62,163.05Z"/></clipPath></defs><g id="Layer_2" data-name="Layer 2"><g id="Layer_2-2" data-name="Layer 2"><polygon class="cls-2" points="133.12 140.1 130.45 140.03 131.06 148.32 116.61 147.96 116.73 149.49 133.84 149.91 133.12 140.1"/><path class="cls-2" d="M156.49,155l-.11-1.53-14.45-.35-.22-3,14.45.36-17.61-7.14L139,150l.22,3-16.92-.41,12.45,10.1-.61-8.29,5.2.13.61,8.29,2.67.06-.62-8.28Zm-9.05-6.25-5.84-.14-.17-2.3Zm-19.94,5.54,4,.1.25,3.35Z"/><polygon class="cls-3" points="123.8 200.39 123.8 206.25 104 217.69 104 211.83 123.8 200.39"/><path class="cls-3" d="M109.07,214.76l14.73-8.51c-11.72-6.69-27.92-6.71-39.59.08a20.69,20.69,0,0,0-6.46,5.5h-2.1v5.86h0c0,4.17,2.88,8.31,8.55,11.58,11.08,6.4,28.3,6.6,39.73,0l.06,0v-5.86Z"/><polygon class="cls-4" points="251 167.6 197.53 136.73 118.91 182.12 172.39 212.99 251 167.6"/><polygon class="cls-5" points="118.91 182.12 118.91 185.37 172.39 216.24 172.39 212.99 118.91 182.12"/><polygon class="cls-6" points="102.46 154.78 28.93 197.32 50.08 209.56 123.61 167.02 102.46 154.78"/><polygon class="cls-7" points="227.76 157.89 225.79 156.75 201.7 170.66 203.68 171.79 227.76 157.89"/><polygon class="cls-7" points="222.39 154.47 220.42 153.34 196.33 167.24 198.31 168.38 222.39 154.47"/><polygon class="cls-7" points="217.02 151.06 215.05 149.92 190.96 163.83 192.94 164.97 217.02 151.06"/><polygon class="cls-7" points="211.65 147.65 209.68 146.51 185.59 160.41 187.56 161.55 211.65 147.65"/><polygon class="cls-8" points="50.08 209.56 50.08 213.59 123.61 171.05 123.61 167.02 50.08 209.56"/><polygon class="cls-5" points="28.93 197.32 28.93 201.35 50.08 213.59 50.08 209.56 28.93 197.32"/><polygon class="cls-9" points="64.82 191.81 64.82 162.62 90.1 148.03 90.1 177.22 64.82 191.81"/><polygon class="cls-5" points="64.82 191.81 64.82 162.62 55.63 157.32 55.63 186.51 64.82 191.81"/><path class="cls-6" d="M146.93,5.22l-7.09-4.09h0a5.42,5.42,0,0,0-6-.4L7.05,73.92A14.11,14.11,0,0,0,0,86.13V190.26a4.85,4.85,0,0,0,2.34,4.18h0l.22.13,7.73,4.49,7.41-10.51,115.9-66.92A16.71,16.71,0,0,0,142,107.16V12.28Z"/><path class="cls-8" d="M15,78.56,141.79,5.37a5.43,5.43,0,0,1,8.14,4.71V111.8a16.7,16.7,0,0,1-8.35,14.47L15.34,199.15A4.91,4.91,0,0,1,8,194.9V90.77A14.1,14.1,0,0,1,15,78.56Z"/><path class="cls-10" d="M15,78.56,141.79,5.37a5.43,5.43,0,0,1,8.14,4.71v93.66L8,185.7V90.77A14.1,14.1,0,0,1,15,78.56Z"/><path class="cls-11" d="M14,90.77a8.12,8.12,0,0,1,4.06-7l125.9-72.7v89.22l-130,75Z"/><path class="cls-9" d="M76.27,155c0,2.07,1.3,2.95,3.19,1.85a6.65,6.65,0,0,0,3.19-5.53c0-2-1.34-2.92-3.18-1.86A6.9,6.9,0,0,0,76.27,155Z"/><path class="cls-12" d="M104,211.83l19.8-11.44c-11.72-6.7-27.92-6.71-39.59.08s-11.09,16.54,0,22.94,28.3,6.6,39.73,0l.06,0Z"/><polygon class="cls-8" points="251 167.6 251 170.85 172.39 216.24 172.39 212.99 251 167.6"/><polygon class="cls-13" points="222.6 116.48 222.6 71.87 231.03 67 231.03 111.62 222.6 116.48"/><polygon class="cls-14" points="222.6 116.48 222.6 71.87 216.49 68.33 216.49 112.95 222.6 116.48"/><polygon class="cls-15" points="216.49 68.33 222.6 71.87 231.03 67 224.91 63.47 216.49 68.33"/><polygon class="cls-16" points="204.76 126.81 204.76 95.17 213.19 90.31 213.19 121.94 204.76 126.81"/><polygon class="cls-17" points="204.76 126.81 204.76 95.17 198.64 91.63 198.64 123.27 204.76 126.81"/><polygon class="cls-18" points="198.64 91.63 204.76 95.17 213.19 90.31 207.07 86.77 198.64 91.63"/><polygon class="cls-19" points="186.92 137.13 186.92 112.88 195.34 108.02 195.34 132.26 186.92 137.13"/><polygon class="cls-3" points="186.92 137.13 186.92 112.88 180.8 109.34 180.8 133.59 186.92 137.13"/><polygon class="cls-12" points="180.8 109.34 186.92 112.88 195.34 108.02 189.22 104.48 180.8 109.34"/><polygon class="cls-20" points="169.08 147.38 169.08 129.57 177.5 124.71 177.5 142.52 169.08 147.38"/><polygon class="cls-21" points="169.08 147.38 169.08 129.57 162.96 126.03 162.96 143.85 169.08 147.38"/><polygon class="cls-22" points="162.96 126.03 169.08 129.57 177.5 124.71 171.38 121.17 162.96 126.03"/><path class="cls-7" d="M217.48,38.4c-10,18.66-30.41,46.87-54,67.09l-9.16,7.34,3.06,5.25c.9-.62,1.81-1.27,2.71-1.93l.36.21,2.49.43,34.38-31.91L222.6,48.79l.4-5.73Z"/><polygon class="cls-23" points="160.47 123.34 154.34 119.81 154.34 112.83 160.47 116.36 160.47 123.34"/><polygon class="cls-24" points="47.48 75.9 17.88 92.98 17.88 97.55 47.48 80.46 47.48 75.9"/><polygon class="cls-24" points="59.22 76.27 17.88 100.13 17.88 104.69 59.22 80.83 59.22 76.27"/><path class="cls-25" d="M232,31.52l-11.87,10L223,43.06c-11.52,21.08-35.66,53.48-62.53,73.3v7C187.06,104.87,214.35,71,228,45.69l3.57,1.86Z"/><polygon class="cls-7" points="220.12 41.55 213.99 38.06 225.86 27.99 231.99 31.52 220.12 41.55"/><path class="cls-25" d="M145.19,211.83h-2.14a21.26,21.26,0,0,0-6.55-5.5l-.14-.08-19.81,11.44,20,11.55c5.74-3.33,8.65-7.4,8.63-11.49h0Z"/><path class="cls-7" d="M136.55,223.38c11.38-6.6,11.67-16.15-.05-22.91l-.14-.08-19.81,11.44Z"/><polygon class="cls-23" points="136.55 223.38 136.55 229.24 116.55 217.69 116.55 211.83 136.55 223.38"/><path class="cls-17" d="M198.25,173.1c-7.07-4.08-7.48-10.29,0-14.64a26.34,26.34,0,0,1,25.37,0c7.49,4.32,7.3,10.43,0,14.64S205.33,177.19,198.25,173.1Z"/><path class="cls-16" d="M229.15,170.3h0v-4.47a5.83,5.83,0,0,1-.5,2.25,11.42,11.42,0,0,0-5-5,26.37,26.37,0,0,0-25.37,0,11.18,11.18,0,0,0-5,5,5.84,5.84,0,0,1-.48-2.37h0v4.59h0c0,2.67,1.83,5.31,5.44,7.4,7.08,4.08,18.07,4.21,25.37,0C227.32,175.56,229.18,172.94,229.15,170.3Z"/><path class="cls-16" d="M229.16,165.71h0a.34.34,0,0,1,0,.1Z"/><path class="cls-26" d="M223.62,163.05a26.37,26.37,0,0,0-25.37,0,11.18,11.18,0,0,0-5,5,11.2,11.2,0,0,0,5,5c7.08,4.09,18.07,4.22,25.37,0a11.35,11.35,0,0,0,5-5A11.37,11.37,0,0,0,223.62,163.05Z"/><path class="cls-27" d="M231.47,176.6l-6-3.39a.92.92,0,0,0-1,.09,2.92,2.92,0,0,0-1.35,2.34c0,.5.19.83.5.93l5.9,3.38a1,1,0,0,0,.93-.13,2.81,2.81,0,0,0,1.34-2.33A1,1,0,0,0,231.47,176.6Z"/><path class="cls-17" d="M232.41,175.05l0,0h0a1.84,1.84,0,0,0-1.84.21,5.63,5.63,0,0,0-2.63,4.53,1.84,1.84,0,0,0,.8,1.76h0l18.48,10.87L251,186Z"/><path class="cls-28" d="M246.54,190.75c0,1.69,1.07,2.42,2.62,1.52a5.47,5.47,0,0,0,2.61-4.54c0-1.67-1.1-2.39-2.6-1.52A5.65,5.65,0,0,0,246.54,190.75Z"/><g class="cls-29"><polygon class="cls-7" points="242.94 154.04 240.18 152.44 206.43 171.93 209.19 173.52 242.94 154.04"/><polygon class="cls-7" points="232.99 151.34 230.22 149.74 196.47 169.23 199.24 170.82 232.99 151.34"/></g><polygon class="cls-6" points="191.86 192.8 189.89 191.66 165.81 205.56 167.78 206.7 191.86 192.8"/><polygon class="cls-6" points="177.05 158.2 173.31 156.04 127.64 182.41 131.38 184.57 177.05 158.2"/><path class="cls-19" d="M153.45,176.43l-.26.14c-6.46,3.76-6.11,9.11,0,12.64l.15.08,11.18-6.46Z"/><polygon class="cls-6" points="182.08 191.11 161.55 202.97 163.52 204.11 184.06 192.25 182.08 191.11"/><path class="cls-30" d="M176.53,176.6a22.79,22.79,0,0,0-21.63-.14l11.08,6.4-11.19,6.46c6.11,3.44,15.49,3.52,21.74-.08S183,180.33,176.53,176.6Z"/><polygon class="cls-6" points="188.59 197.46 170.06 208.16 172.03 209.3 190.56 198.6 188.59 197.46"/><polygon class="cls-31" points="21.82 115.93 26.33 109.05 30.83 107.69 35.34 106 39.85 103.41 44.36 95.4 48.87 98.9 53.38 97.76 57.88 92.92 62.39 85.02 66.9 80.7 71.41 76.38 75.92 76.04 80.42 71.19 84.93 71.78 89.44 61.09 93.95 53.19 98.46 57.23 102.97 56.49 107.47 55.62 111.98 56.34 116.49 49.76 121 42.13 125.51 42.32 125.51 97.08 21.82 156.77 21.82 115.93"/><polygon class="cls-32" points="111.98 56.34 115.19 58.19 122.34 51.18 124.21 43.98 121 42.13 116.49 49.76 111.98 56.34"/><polygon class="cls-32" points="43.06 105.26 39.85 103.41 44.36 95.4 47.57 97.25 43.06 105.26"/><polygon class="cls-32" points="71.41 76.38 74.62 78.23 65.6 86.87 62.39 85.02 71.41 76.38"/><polygon class="cls-32" points="75.92 76.04 79.13 77.89 83.63 73.04 80.42 71.19 75.92 76.04"/><polygon class="cls-32" points="84.93 71.78 88.14 73.63 92.65 62.94 97.16 55.05 93.95 53.19 89.44 61.09 84.93 71.78"/><polygon class="cls-33" points="25.03 117.78 29.54 110.9 34.04 109.54 38.55 107.85 43.06 105.26 47.57 97.25 52.08 100.75 56.59 99.62 61.09 94.77 65.6 86.87 70.11 82.55 74.62 78.23 79.13 77.89 83.63 73.04 88.14 73.63 92.65 62.94 97.16 55.05 101.67 59.08 106.18 58.34 110.68 57.47 115.19 58.19 119.7 51.62 124.21 43.98 128.72 44.17 128.72 98.94 25.03 158.62 25.03 117.78"/><polygon class="cls-28" points="25.03 147.09 29.54 141.18 34.04 141.37 38.55 141.16 43.06 135.12 47.57 130.8 52.08 131.52 56.59 128.19 61.09 124.2 65.6 122.27 70.11 119.68 74.62 113.1 79.13 114.16 83.63 109.37 88.14 99.09 92.65 89.46 97.16 82.63 101.67 84.14 106.18 83.4 110.68 79.88 115.19 75.3 119.7 70.18 124.21 65.33 128.72 62.74 128.72 98.94 25.03 158.62 25.03 147.09"/><polygon class="cls-34" points="21.82 156.77 21.82 115.93 25.03 117.78 25.03 158.62 21.82 156.77"/><polygon class="cls-35" points="28.23 148.94 25.03 147.09 25.03 158.62 28.23 160.47 28.23 148.94"/><polygon class="cls-36" points="131.93 64.59 128.72 62.74 124.21 65.33 127.42 67.18 131.93 64.59"/><polygon class="cls-37" points="32.74 143.03 29.54 141.18 25.03 147.09 28.23 148.94 32.74 143.03"/><path class="cls-37" d="M38.55,141.16,41.76,143s9.11-5.61,9.11-5.73-.09-4.63-.09-4.63l-3.21-1.85-4.51,4.31Z"/><polygon class="cls-37" points="52.08 131.52 55.28 133.37 61.52 130.38 64.3 126.06 61.09 124.2 56.59 128.19 52.08 131.52"/><polygon class="cls-37" points="70.11 119.68 73.32 121.53 77.83 114.96 74.62 113.1 70.11 119.68"/><polygon class="cls-37" points="97.16 82.63 100.37 84.48 95.86 91.32 86.84 112.14 83.63 109.37 88.14 99.09 92.65 89.46 97.16 82.63"/><polygon class="cls-37" points="106.18 83.4 109.39 85.25 119.98 80.49 127.42 67.18 124.21 65.33 119.7 70.18 115.19 75.3 110.68 79.88 106.18 83.4"/><polygon class="cls-38" points="28.23 148.94 32.74 143.03 37.25 143.22 41.76 143.01 46.27 136.97 50.78 132.65 55.28 133.37 59.79 130.04 64.3 126.06 68.81 124.12 73.32 121.53 77.83 114.96 82.33 116.01 86.84 111.22 91.35 100.94 95.86 91.32 100.37 84.48 104.88 85.99 109.39 85.25 113.89 81.73 118.4 77.15 122.91 72.03 127.42 67.18 131.93 64.59 131.93 100.79 28.23 160.47 28.23 148.94"/><polygon class="cls-39" points="32.74 155.23 37.25 153.83 41.76 149.51 46.27 146.91 50.78 142.86 55.28 142.65 59.79 139.26 64.3 137.46 68.81 131.81 73.32 130.41 77.83 125.83 82.33 124.03 86.84 122.23 91.35 118.04 95.86 106.43 100.37 105.96 104.88 105.75 109.39 98.12 113.89 97.38 118.4 93.99 122.91 87.88 127.42 82.83 131.93 81.03 131.93 100.79 37.62 158.05 28.23 160.47 32.74 155.23"/><polygon class="cls-40" points="35.95 157.08 40.46 155.68 44.97 151.36 49.48 148.76 53.99 144.71 58.49 144.5 63 141.11 67.51 139.31 72.02 133.67 76.53 132.27 81.03 127.68 85.54 125.88 90.05 124.08 94.56 119.9 99.07 108.28 103.58 107.81 108.08 107.6 112.59 99.97 117.1 99.23 121.61 95.84 126.12 89.73 130.63 84.68 135.13 82.88 135.13 102.64 31.44 162.33 35.95 157.08"/><polygon class="cls-41" points="79.13 114.16 82.33 116.01 86.84 111.22 83.63 109.37 79.13 114.16"/><polygon class="cls-32" points="26.33 109.05 29.54 110.9 25.03 117.78 21.82 115.93 26.33 109.05"/><polygon class="cls-31" points="128.72 44.17 125.51 42.32 121 42.13 124.21 43.98 128.72 44.17"/><polygon class="cls-42" points="31.44 162.33 28.23 160.47 32.74 155.23 35.95 157.08 31.44 162.33"/><polygon class="cls-42" points="40.46 155.68 37.25 153.83 41.76 149.51 44.97 151.36 40.46 155.68"/><polygon class="cls-42" points="49.48 148.76 46.27 146.91 50.78 142.86 53.99 144.71 49.48 148.76"/><polygon class="cls-42" points="58.49 144.5 55.28 142.65 59.79 139.26 63 141.11 58.49 144.5"/><polygon class="cls-42" points="67.51 139.31 64.3 137.46 68.81 131.81 72.02 133.67 67.51 139.31"/><polygon class="cls-42" points="73.32 130.41 76.53 132.27 81.03 127.68 77.83 125.83 73.32 130.41"/><polygon class="cls-42" points="86.84 122.23 90.05 124.08 94.56 119.9 91.35 118.04 86.84 122.23"/><polygon class="cls-42" points="95.86 106.43 91.35 118.04 94.56 119.9 99.07 108.28 95.86 106.43"/><polygon class="cls-42" points="104.88 105.75 108.08 107.6 112.59 99.97 109.39 98.12 104.88 105.75"/><polygon class="cls-42" points="113.89 97.38 117.1 99.23 121.61 95.84 118.4 93.99 113.89 97.38"/><polygon class="cls-42" points="122.91 87.88 127.42 82.83 130.63 84.68 126.12 89.73 122.91 87.88"/><polygon class="cls-42" points="135.13 82.88 131.93 81.03 127.42 82.83 130.63 84.68 135.13 82.88"/></g></g></svg>
